<svg xmlns="http://www.w3.org/2000/svg" viewBox="0 0 600 920" style="background:#0d1117;font-family:system-ui,sans-serif;">
<defs><pattern id="grid" width="20" height="20" patternUnits="userSpaceOnUse"><path d="M 20 0 L 0 0 0 20" fill="none" stroke="#161b22" stroke-width="0.5"/></pattern></defs>
<rect width="600" height="920" fill="url(#grid)"/>
<text x="300.0" y="28" text-anchor="middle" fill="#58a6ff" font-size="16" font-weight="700">⚡ WW Bridge — Architecture</text>
<text x="300.0" y="44" text-anchor="middle" fill="#8b949e" font-size="10">26 modules · 33 connections</text>
<path d="M120.0,60 L120.0,40.0 L330.0,40.0 L330.0,20" fill="none" stroke="#30363d" stroke-width="1.2" marker-end="url(#arrow)"/>
<path d="M330.0,60 L330.0,80.0 L120.0,80.0 L120.0,100" fill="none" stroke="#30363d" stroke-width="1.2" marker-end="url(#arrow)"/>
<path d="M330.0,60 L330.0,80.0 L265.0,80.0 L265.0,100" fill="none" stroke="#30363d" stroke-width="1.2" marker-end="url(#arrow)"/>
<path d="M330.0,60 L330.0,80.0 L420.0,80.0 L420.0,100" fill="none" stroke="#30363d" stroke-width="1.2" marker-end="url(#arrow)"/>
<path d="M330.0,60 L330.0,120.0 L130.0,120.0 L130.0,180" fill="none" stroke="#30363d" stroke-width="1.2" marker-end="url(#arrow)"/>
<path d="M330.0,60 L330.0,160.0 L135.0,160.0 L135.0,260" fill="none" stroke="#30363d" stroke-width="1.2" marker-end="url(#arrow)"/>
<path d="M330.0,60 L330.0,160.0 L495.0,160.0 L495.0,260" fill="none" stroke="#30363d" stroke-width="1.2" marker-end="url(#arrow)"/>
<path d="M495.0,300 L495.0,280.0 L135.0,280.0 L135.0,260" fill="none" stroke="#30363d" stroke-width="1.2" marker-end="url(#arrow)"/>
<path d="M495.0,300 L495.0,320.0 L120.0,320.0 L120.0,340" fill="none" stroke="#30363d" stroke-width="1.2" marker-end="url(#arrow)"/>
<path d="M495.0,300 L495.0,320.0 L475.0,320.0 L475.0,340" fill="none" stroke="#30363d" stroke-width="1.2" marker-end="url(#arrow)"/>
<path d="M495.0,300 L495.0,360.0 L120.0,360.0 L120.0,420" fill="none" stroke="#30363d" stroke-width="1.2" marker-end="url(#arrow)"/>
<path d="M495.0,300 L495.0,360.0 L290.0,360.0 L290.0,420" fill="none" stroke="#30363d" stroke-width="1.2" marker-end="url(#arrow)"/>
<path d="M330.0,60 L330.0,120.0 L305.0,120.0 L305.0,180" fill="none" stroke="#30363d" stroke-width="1.2" marker-end="url(#arrow)"/>
<path d="M460.0,220 L460.0,120.0 L330.0,120.0 L330.0,20" fill="none" stroke="#30363d" stroke-width="1.2" marker-end="url(#arrow)"/>
<path d="M135.0,300 L135.0,280.0 L315.0,280.0 L315.0,260" fill="none" stroke="#30363d" stroke-width="1.2" marker-end="url(#arrow)"/>
<path d="M120.0,380 L120.0,360.0 L295.0,360.0 L295.0,340" fill="none" stroke="#30363d" stroke-width="1.2" marker-end="url(#arrow)"/>
<path d="M295.0,380 L295.0,400.0 L120.0,400.0 L120.0,420" fill="none" stroke="#30363d" stroke-width="1.2" marker-end="url(#arrow)"/>
<path d="M330.0,60 L330.0,280.0 L125.0,280.0 L125.0,500" fill="none" stroke="#30363d" stroke-width="1.2" marker-end="url(#arrow)"/>
<path d="M495.0,300 L495.0,400.0 L125.0,400.0 L125.0,500" fill="none" stroke="#30363d" stroke-width="1.2" marker-end="url(#arrow)"/>
<path d="M330.0,60 L330.0,280.0 L310.0,280.0 L310.0,500" fill="none" stroke="#30363d" stroke-width="1.2" marker-end="url(#arrow)"/>
<path d="M495.0,300 L495.0,400.0 L310.0,400.0 L310.0,500" fill="none" stroke="#30363d" stroke-width="1.2" marker-end="url(#arrow)"/>
<path d="M125.0,620 L125.0,560.0 L125.0,560.0 L125.0,500" fill="none" stroke="#30363d" stroke-width="1.2" marker-end="url(#arrow)"/>
<path d="M125.0,620 L125.0,440.0 L495.0,440.0 L495.0,260" fill="none" stroke="#30363d" stroke-width="1.2" marker-end="url(#arrow)"/>
<path d="M125.0,620 L125.0,560.0 L310.0,560.0 L310.0,500" fill="none" stroke="#30363d" stroke-width="1.2" marker-end="url(#arrow)"/>
<path d="M310.0,620 L310.0,440.0 L495.0,440.0 L495.0,260" fill="none" stroke="#30363d" stroke-width="1.2" marker-end="url(#arrow)"/>
<path d="M485.0,620 L485.0,480.0 L120.0,480.0 L120.0,340" fill="none" stroke="#30363d" stroke-width="1.2" marker-end="url(#arrow)"/>
<path d="M330.0,60 L330.0,360.0 L125.0,360.0 L125.0,660" fill="none" stroke="#30363d" stroke-width="1.2" marker-end="url(#arrow)"/>
<path d="M125.0,700 L125.0,520.0 L120.0,520.0 L120.0,340" fill="none" stroke="#30363d" stroke-width="1.2" marker-end="url(#arrow)"/>
<path d="M120.0,780 L120.0,640.0 L125.0,640.0 L125.0,500" fill="none" stroke="#30363d" stroke-width="1.2" marker-end="url(#arrow)"/>
<path d="M120.0,780 L120.0,640.0 L310.0,640.0 L310.0,500" fill="none" stroke="#30363d" stroke-width="1.2" marker-end="url(#arrow)"/>
<path d="M485.0,780 L485.0,760.0 L315.0,760.0 L315.0,740" fill="none" stroke="#30363d" stroke-width="1.2" marker-end="url(#arrow)"/>
<path d="M330.0,60 L330.0,400.0 L315.0,400.0 L315.0,740" fill="none" stroke="#30363d" stroke-width="1.2" marker-end="url(#arrow)"/>
<path d="M315.0,780 L315.0,800.0 L305.0,800.0 L305.0,820" fill="none" stroke="#30363d" stroke-width="1.2" marker-end="url(#arrow)"/>
<defs><marker id="arrow" viewBox="0 0 10 10" refX="10" refY="5" markerWidth="6" markerHeight="6" orient="auto"><path d="M0,0 L10,5 L0,10" fill="#30363d"/></marker></defs>
<rect x="50" y="20" width="140" height="46" rx="6" fill="#58a6ff" opacity="0.9"/>
<text x="120.0" y="38" text-anchor="middle" fill="#fff" font-size="10" font-weight="600">gemini_bridge.py</text>
<text x="120.0" y="52" text-anchor="middle" fill="#fff" font-size="10" font-weight="600">(root)</text>
<rect x="250" y="20" width="160" height="46" rx="6" fill="#58a6ff" opacity="0.9"/>
<text x="330.0" y="38" text-anchor="middle" fill="#fff" font-size="10" font-weight="600">src/gemini_bridge.py</text>
<text x="330.0" y="52" text-anchor="middle" fill="#fff" font-size="10" font-weight="600">(orchestrator)</text>
<rect x="60" y="100" width="120" height="32" rx="6" fill="#3fb950" opacity="0.9"/>
<text x="120.0" y="118" text-anchor="middle" fill="#fff" font-size="10" font-weight="600">src/tui.py</text>
<rect x="200" y="100" width="130" height="32" rx="6" fill="#3fb950" opacity="0.9"/>
<text x="265.0" y="118" text-anchor="middle" fill="#fff" font-size="10" font-weight="600">src/ui_adapter.py</text>
<rect x="350" y="100" width="140" height="46" rx="6" fill="#3fb950" opacity="0.9"/>
<text x="420.0" y="118" text-anchor="middle" fill="#fff" font-size="10" font-weight="600">src/ui_utils.py</text>
<text x="420.0" y="132" text-anchor="middle" fill="#fff" font-size="10" font-weight="600">(V4: theme,spin)</text>
<rect x="60" y="180" width="140" height="46" rx="6" fill="#d29922" opacity="0.9"/>
<text x="130.0" y="198" text-anchor="middle" fill="#000" font-size="10" font-weight="600">src/commands.py</text>
<text x="130.0" y="212" text-anchor="middle" fill="#000" font-size="10" font-weight="600">COMMAND_TABLE</text>
<rect x="240" y="180" width="130" height="46" rx="6" fill="#d29922" opacity="0.9"/>
<text x="305.0" y="198" text-anchor="middle" fill="#000" font-size="10" font-weight="600">BridgeContext</text>
<text x="305.0" y="212" text-anchor="middle" fill="#000" font-size="10" font-weight="600">dataclass</text>
<rect x="400" y="180" width="120" height="32" rx="6" fill="#d29922" opacity="0.9"/>
<text x="460.0" y="198" text-anchor="middle" fill="#000" font-size="10" font-weight="600">src/config.py</text>
<rect x="60" y="260" width="150" height="46" rx="6" fill="#a371f7" opacity="0.9"/>
<text x="135.0" y="278" text-anchor="middle" fill="#fff" font-size="10" font-weight="600">3-Tier Agents</text>
<text x="135.0" y="292" text-anchor="middle" fill="#fff" font-size="10" font-weight="600">Comm→Overseer→Specs</text>
<rect x="240" y="260" width="150" height="46" rx="6" fill="#a371f7" opacity="0.9"/>
<text x="315.0" y="278" text-anchor="middle" fill="#fff" font-size="10" font-weight="600">src/prompt_templates.py</text>
<text x="315.0" y="292" text-anchor="middle" fill="#fff" font-size="10" font-weight="600">+hash verify</text>
<rect x="420" y="260" width="150" height="46" rx="6" fill="#a371f7" opacity="0.9"/>
<text x="495.0" y="278" text-anchor="middle" fill="#fff" font-size="10" font-weight="600">src/tool_executor.py</text>
<text x="495.0" y="292" text-anchor="middle" fill="#fff" font-size="10" font-weight="600">dispatch+del</text>
<rect x="50" y="340" width="140" height="46" rx="6" fill="#f78166" opacity="0.9"/>
<text x="120.0" y="358" text-anchor="middle" fill="#fff" font-size="10" font-weight="600">src/tools/registry.py</text>
<text x="120.0" y="372" text-anchor="middle" fill="#fff" font-size="10" font-weight="600">DAG</text>
<rect x="220" y="340" width="150" height="46" rx="6" fill="#f78166" opacity="0.9"/>
<text x="295.0" y="358" text-anchor="middle" fill="#fff" font-size="10" font-weight="600">src/tools/system_tools.py</text>
<text x="295.0" y="372" text-anchor="middle" fill="#fff" font-size="10" font-weight="600">10 tools</text>
<rect x="400" y="340" width="150" height="46" rx="6" fill="#f78166" opacity="0.9"/>
<text x="475.0" y="358" text-anchor="middle" fill="#fff" font-size="10" font-weight="600">src/diff_engine.py</text>
<text x="475.0" y="372" text-anchor="middle" fill="#fff" font-size="10" font-weight="600">SEARCH/REPLACE</text>
<rect x="50" y="420" width="140" height="46" rx="6" fill="#f78166" opacity="0.9"/>
<text x="120.0" y="438" text-anchor="middle" fill="#fff" font-size="10" font-weight="600">src/permissions.py</text>
<text x="120.0" y="452" text-anchor="middle" fill="#fff" font-size="10" font-weight="600">sandbox</text>
<rect x="220" y="420" width="140" height="46" rx="6" fill="#f78166" opacity="0.9"/>
<text x="290.0" y="438" text-anchor="middle" fill="#fff" font-size="10" font-weight="600">src/checkpoint.py</text>
<text x="290.0" y="452" text-anchor="middle" fill="#fff" font-size="10" font-weight="600">git+/undo</text>
<rect x="50" y="500" width="150" height="46" rx="6" fill="#db6d28" opacity="0.9"/>
<text x="125.0" y="518" text-anchor="middle" fill="#fff" font-size="10" font-weight="600">src/core/memory.py</text>
<text x="125.0" y="532" text-anchor="middle" fill="#fff" font-size="10" font-weight="600">3-tier+SQLite</text>
<rect x="240" y="500" width="140" height="46" rx="6" fill="#db6d28" opacity="0.9"/>
<text x="310.0" y="518" text-anchor="middle" fill="#fff" font-size="10" font-weight="600">src/telemetry.py</text>
<text x="310.0" y="532" text-anchor="middle" fill="#fff" font-size="10" font-weight="600">logs+redact</text>
<rect x="50" y="580" width="150" height="46" rx="6" fill="#56d4dd" opacity="0.9"/>
<text x="125.0" y="598" text-anchor="middle" fill="#000" font-size="10" font-weight="600">EventBus (V4)</text>
<text x="125.0" y="612" text-anchor="middle" fill="#000" font-size="10" font-weight="600">13 event types</text>
<rect x="240" y="580" width="140" height="46" rx="6" fill="#56d4dd" opacity="0.9"/>
<text x="310.0" y="598" text-anchor="middle" fill="#000" font-size="10" font-weight="600">DecisionTracer</text>
<text x="310.0" y="612" text-anchor="middle" fill="#000" font-size="10" font-weight="600">(V4) audit trail</text>
<rect x="410" y="580" width="150" height="46" rx="6" fill="#56d4dd" opacity="0.9"/>
<text x="485.0" y="598" text-anchor="middle" fill="#000" font-size="10" font-weight="600">CapabilityRegistry</text>
<text x="485.0" y="612" text-anchor="middle" fill="#000" font-size="10" font-weight="600">(V4) abstraction</text>
<rect x="50" y="660" width="150" height="46" rx="6" fill="#ff7b72" opacity="0.9"/>
<text x="125.0" y="678" text-anchor="middle" fill="#fff" font-size="10" font-weight="600">src/plugins/ww_plugin.py</text>
<text x="125.0" y="692" text-anchor="middle" fill="#fff" font-size="10" font-weight="600">lifecycle+perms</text>
<rect x="50" y="740" width="140" height="46" rx="6" fill="#7ee787" opacity="0.9"/>
<text x="120.0" y="758" text-anchor="middle" fill="#000" font-size="10" font-weight="600">FastAPI /api/v1/</text>
<text x="120.0" y="772" text-anchor="middle" fill="#000" font-size="10" font-weight="600">dashboard</text>
<rect x="240" y="740" width="150" height="46" rx="6" fill="#7ee787" opacity="0.9"/>
<text x="315.0" y="758" text-anchor="middle" fill="#000" font-size="10" font-weight="600">WebGeminiClient</text>
<text x="315.0" y="772" text-anchor="middle" fill="#000" font-size="10" font-weight="600">+CircuitBreaker</text>
<rect x="420" y="740" width="130" height="46" rx="6" fill="#7ee787" opacity="0.9"/>
<text x="485.0" y="758" text-anchor="middle" fill="#000" font-size="10" font-weight="600">WWClient SDK</text>
<text x="485.0" y="772" text-anchor="middle" fill="#000" font-size="10" font-weight="600">(V4)</text>
<rect x="240" y="820" width="130" height="32" rx="6" fill="#e3b341" opacity="0.9"/>
<text x="305.0" y="838" text-anchor="middle" fill="#000" font-size="10" font-weight="600">🌐 Gemini API</text>
<rect x="430" y="50" width="150" height="230" rx="6" fill="#161b22" stroke="#30363d" stroke-width="1"/>
<circle cx="448" cy="68" r="5" fill="#58a6ff"/>
<text x="460" y="72" fill="#c9d1d9" font-size="9">Entry Points</text>
<circle cx="448" cy="90" r="5" fill="#3fb950"/>
<text x="460" y="94" fill="#c9d1d9" font-size="9">UI / Shell</text>
<circle cx="448" cy="112" r="5" fill="#d29922"/>
<text x="460" y="116" fill="#c9d1d9" font-size="9">Orchestration</text>
<circle cx="448" cy="134" r="5" fill="#a371f7"/>
<text x="460" y="138" fill="#c9d1d9" font-size="9">Agent System</text>
<circle cx="448" cy="156" r="5" fill="#f78166"/>
<text x="460" y="160" fill="#c9d1d9" font-size="9">Tool System</text>
<circle cx="448" cy="178" r="5" fill="#db6d28"/>
<text x="460" y="182" fill="#c9d1d9" font-size="9">Memory & Storage</text>
<circle cx="448" cy="200" r="5" fill="#56d4dd"/>
<text x="460" y="204" fill="#c9d1d9" font-size="9">Bridge Abstractions (V4)</text>
<circle cx="448" cy="222" r="5" fill="#ff7b72"/>
<text x="460" y="226" fill="#c9d1d9" font-size="9">Plugin System</text>
<circle cx="448" cy="244" r="5" fill="#7ee787"/>
<text x="460" y="248" fill="#c9d1d9" font-size="9">Dashboard & API</text>
<circle cx="448" cy="266" r="5" fill="#e3b341"/>
<text x="460" y="270" fill="#c9d1d9" font-size="9">External</text>
</svg>